<svg width="96" height="20" viewBox="0 0 96 20" fill="none" xmlns="http://www.w3.org/2000/svg">
<mask id="path-1-inside-1_136_12551" fill="white">
<path d="M20.6782 2.68278C20.6782 1.38834 21.7276 0.338989 23.022 0.338989C23.5997 0.338989 24.0681 0.807318 24.0681 1.38503V3.72882H21.7243C21.1466 3.72882 20.6782 3.26049 20.6782 2.68278Z"/>
</mask>
<path d="M20.6782 2.68278C20.6782 1.38834 21.7276 0.338989 23.022 0.338989C23.5997 0.338989 24.0681 0.807318 24.0681 1.38503V3.72882H21.7243C21.1466 3.72882 20.6782 3.26049 20.6782 2.68278Z" fill="#24282C" stroke="#24282C" stroke-width="3.38983" mask="url(#path-1-inside-1_136_12551)"/>
<mask id="path-2-inside-2_136_12551" fill="white">
<path d="M41.6948 2.56559C41.6948 1.33587 42.6917 0.338989 43.9214 0.338989C44.4703 0.338989 44.9152 0.783902 44.9152 1.33273V3.72882H42.7409C42.1632 3.72882 41.6948 3.26049 41.6948 2.68278V2.56559Z"/>
</mask>
<path d="M41.6948 2.56559C41.6948 1.33587 42.6917 0.338989 43.9214 0.338989C44.4703 0.338989 44.9152 0.783902 44.9152 1.33273V3.72882H42.7409C42.1632 3.72882 41.6948 3.26049 41.6948 2.68278V2.56559Z" fill="#24282C" stroke="#24282C" stroke-width="3.22034" mask="url(#path-2-inside-2_136_12551)"/>
<path d="M49.2345 20C48.2497 20 47.4514 19.2017 47.4514 18.2169V2.12209C47.4514 1.13731 48.2497 0.338989 49.2345 0.338989H50.3935V9.72789H50.6315L58.8102 0.338989H62.5138L54.6494 9.19029L62.5424 20H59.0006L52.6976 11.2159L50.3935 13.8847V20H49.2345Z" fill="#24282C"/>
<path d="M17.793 0.338989V20H16.7293C15.7445 20 14.9462 19.2017 14.9462 18.2169V2.12209C14.9462 1.13731 15.7445 0.338989 16.7293 0.338989H17.793Z" fill="#24282C"/>
<path d="M22.6016 20C21.6168 20 20.8185 19.2017 20.8185 18.2169V7.03734C20.8185 6.05256 21.6168 5.25424 22.6016 5.25424H23.6653V20H22.6016Z" fill="#24282C"/>
<path d="M29.5375 11.2447V20H28.4739C27.4891 20 26.6908 19.2017 26.6908 18.2169V7.03734C26.6908 6.05256 27.4891 5.25424 28.4739 5.25424H29.4233V7.65427H29.6042C29.9406 6.87346 30.4674 6.24625 31.1847 5.77265C31.9083 5.29904 32.8191 5.06224 33.9172 5.06224C34.9137 5.06224 35.7865 5.27344 36.5355 5.69585C37.2845 6.11185 37.8652 6.73266 38.2778 7.55827C38.6904 8.38388 38.8967 9.40469 38.8967 10.6207V20H37.833C36.8482 20 36.0499 19.2017 36.0499 18.2169V10.9663C36.0499 9.8975 35.7738 9.06229 35.2216 8.46068C34.6694 7.85267 33.9108 7.54867 32.9461 7.54867C32.2859 7.54867 31.6988 7.69267 31.1847 7.98067C30.6769 8.26868 30.2738 8.69108 29.9755 9.24789C29.6835 9.7983 29.5375 10.4639 29.5375 11.2447Z" fill="#24282C"/>
<path d="M43.6934 20C42.7086 20 41.9103 19.2017 41.9103 18.2169V7.03734C41.9103 6.05256 42.7086 5.25424 43.6934 5.25424H44.7571V20H43.6934Z" fill="#24282C"/>
<path d="M2.61827 14.9984L2.59923 11.4943H3.09432L8.92117 5.25424H12.3297L5.68403 12.3583H5.23655L2.61827 14.9984ZM1.7831 20C0.79832 20 0 19.2017 0 18.2169V6.94733C0 5.96255 0.79832 5.16423 1.7831 5.16423H2.84678V20H1.7831ZM9.23536 20L3.99882 12.9919L5.96014 10.9855L12.7296 20H9.23536Z" fill="#24282C"/>
<path d="M79.1269 9.97156C79.1269 12.0442 78.7453 13.8262 77.9821 15.3175C77.2189 16.8025 76.1726 17.9463 74.8434 18.7488C73.5205 19.545 72.0163 19.9431 70.3309 19.9431C68.6391 19.9431 67.1286 19.545 65.7994 18.7488C64.4765 17.9463 63.4334 16.7994 62.6702 15.3081C61.907 13.8167 61.5254 12.0379 61.5254 9.97156C61.5254 7.89889 61.907 6.12006 62.6702 4.63507C63.4334 3.14376 64.4765 2 65.7994 1.20379C67.1286 0.401264 68.6391 0 70.3309 0C72.0163 0 73.5205 0.401264 74.8434 1.20379C76.1726 2 77.2189 3.14376 77.9821 4.63507C78.7453 6.12006 79.1269 7.89889 79.1269 9.97156ZM76.2076 9.97156C76.2076 8.39179 75.95 7.06161 75.4349 5.98104C74.9261 4.89416 74.2265 4.07267 73.3361 3.51659C72.452 2.95419 71.4503 2.67299 70.3309 2.67299C69.2052 2.67299 68.2003 2.95419 67.3162 3.51659C66.4322 4.07267 65.7326 4.89416 65.2174 5.98104C64.7086 7.06161 64.4542 8.39179 64.4542 9.97156C64.4542 11.5513 64.7086 12.8847 65.2174 13.9716C65.7326 15.0521 66.4322 15.8736 67.3162 16.436C68.2003 16.9921 69.2052 17.2701 70.3309 17.2701C71.4503 17.2701 72.452 16.9921 73.3361 16.436C74.2265 15.8736 74.9261 15.0521 75.4349 13.9716C75.95 12.8847 76.2076 11.5513 76.2076 9.97156Z" fill="#51D6C7"/>
<path d="M92.6526 5.36493C92.5508 4.46761 92.1311 3.77251 91.3933 3.27962C90.6555 2.78041 89.727 2.53081 88.6076 2.53081C87.8062 2.53081 87.113 2.65719 86.5278 2.90995C85.9427 3.1564 85.488 3.49763 85.1636 3.93365C84.8456 4.36335 84.6866 4.85308 84.6866 5.40284C84.6866 5.86414 84.7947 6.26224 85.011 6.59716C85.2336 6.93207 85.5229 7.21327 85.8791 7.44076C86.2416 7.66193 86.6296 7.84834 87.043 8C87.4564 8.14534 87.8539 8.2654 88.2355 8.36019L90.1435 8.85308C90.7668 9.00474 91.406 9.21011 92.0611 9.46919C92.7162 9.72828 93.3236 10.0695 93.8833 10.4929C94.443 10.9163 94.8945 11.4408 95.238 12.0664C95.5878 12.6919 95.7627 13.4408 95.7627 14.3128C95.7627 15.4123 95.4765 16.3886 94.9041 17.2417C94.338 18.0948 93.5144 18.7678 92.4332 19.2607C91.3583 19.7536 90.0577 20 88.5313 20C87.0684 20 85.8028 19.7694 84.7343 19.3081C83.6658 18.8468 82.8295 18.1927 82.2252 17.346C81.621 16.4929 81.2871 15.4818 81.2235 14.3128H84.181C84.2382 15.0142 84.4672 15.5987 84.8679 16.0664C85.2749 16.5276 85.7933 16.872 86.4229 17.0995C87.0589 17.3207 87.7553 17.4313 88.5122 17.4313C89.3454 17.4313 90.0863 17.3017 90.735 17.0427C91.3901 16.7773 91.9053 16.4107 92.2805 15.9431C92.6558 15.4692 92.8434 14.9163 92.8434 14.2844C92.8434 13.7093 92.678 13.2385 92.3473 12.872C92.0229 12.5055 91.5809 12.2022 91.0212 11.9621C90.4679 11.722 89.8414 11.5103 89.1418 11.327L86.8331 10.7014C85.2685 10.278 84.0283 9.65561 83.1125 8.83412C82.203 8.01264 81.7482 6.92575 81.7482 5.57346C81.7482 4.45498 82.0535 3.47867 82.6641 2.64455C83.2747 1.81043 84.1015 1.16272 85.1445 0.701423C86.1876 0.233808 87.3642 0 88.6744 0C89.9973 0 91.1643 0.230648 92.1756 0.691944C93.1932 1.15324 93.9946 1.78831 94.5797 2.59716C95.1648 3.39968 95.4701 4.32227 95.4955 5.36493H92.6526Z" fill="#51D6C7"/>
</svg>
