<svg width="167" height="167" viewBox="0 0 167 167" fill="none" xmlns="http://www.w3.org/2000/svg">
<path d="M127.869 108.58C138.522 108.58 147.159 117.216 147.159 127.869C147.159 138.522 138.522 147.159 127.869 147.159C117.216 147.158 108.58 138.522 108.58 127.869V108.58H127.869Z" stroke="#51D6C7" stroke-width="39.1303"/>
<path d="M39.1302 159.359L60.7972 159.359C66.2224 159.359 70.6203 154.961 70.6204 149.536L70.6204 96.3796L17.4642 96.3796C12.0389 96.3797 7.64104 100.778 7.64092 106.203L7.64092 127.87C7.64116 145.261 21.7392 159.359 39.1302 159.359Z" stroke="#51D6C7" stroke-width="15.281"/>
<path d="M39.1299 7.64062L60.7969 7.64062C66.2221 7.64074 70.62 12.0386 70.6201 17.4639V70.6201H17.4639C12.0386 70.62 7.64075 66.2221 7.64063 60.7969L7.64063 39.1299C7.64086 21.7389 21.7389 7.64086 39.1299 7.64062Z" stroke="#51D6C7" stroke-width="15.281"/>
<path d="M127.87 7.64087H106.203C100.778 7.64099 96.3799 12.0389 96.3798 17.4641V70.6204H149.536C154.961 70.6203 159.359 66.2223 159.359 60.7971V39.1301C159.359 21.7391 145.261 7.6411 127.87 7.64087Z" stroke="#51D6C7" stroke-width="15.281"/>
</svg>
