<svg width="32" height="32" viewBox="0 0 32 32" fill="none" xmlns="http://www.w3.org/2000/svg">
<path d="M7.49805 30.5361H11.6494C12.689 30.5361 13.5322 29.6929 13.5322 28.6533V18.4678H3.34668C2.30709 18.4678 1.46387 19.311 1.46387 20.3506V24.502C1.46387 27.8344 4.16557 30.5361 7.49805 30.5361Z" stroke="#24282C" stroke-width="2.9281"/>
<path d="M24.502 1.46387H20.3506C19.311 1.46387 18.4678 2.30708 18.4678 3.34668V13.5322H28.6533C29.6929 13.5322 30.5361 12.689 30.5361 11.6494V7.49805C30.5361 4.16557 27.8344 1.46387 24.502 1.46387Z" stroke="#24282C" stroke-width="2.9281"/>
<mask id="path-3-inside-1_136_12549" fill="white">
<path d="M17.0039 17.0038H24.502C28.643 17.0038 32 20.3608 32 24.5019C32 28.6429 28.643 31.9999 24.5019 31.9999C20.3609 31.9999 17.0039 28.6429 17.0039 24.5019V17.0038Z"/>
</mask>
<path d="M17.0039 17.0038V-3.91119H-3.91113V17.0038H17.0039ZM17.0039 17.0038V37.9189H24.502V17.0038V-3.91119H17.0039V17.0038ZM17.0039 24.5019H37.9189V17.0038H17.0039H-3.91113V24.5019H17.0039ZM24.5019 31.9999V11.0849C31.912 11.0849 37.9189 17.0919 37.9189 24.5019H17.0039H-3.91113C-3.91113 40.194 8.80983 52.915 24.5019 52.915V31.9999ZM32 24.5019H11.085C11.085 17.0919 17.0919 11.0849 24.5019 11.0849V31.9999V52.915C40.1941 52.915 52.915 40.194 52.915 24.5019H32ZM24.502 17.0038V37.9189C17.0919 37.9189 11.085 31.9119 11.085 24.5019H32H52.915C52.915 8.80979 40.1941 -3.91119 24.502 -3.91119V17.0038Z" fill="#51D6C7" mask="url(#path-3-inside-1_136_12549)"/>
<path d="M7.49805 1.46387H11.6494C12.689 1.46387 13.5322 2.30708 13.5322 3.34668V13.5322H3.34668C2.30709 13.5322 1.46387 12.689 1.46387 11.6494V7.49805C1.46387 4.16557 4.16557 1.46387 7.49805 1.46387Z" stroke="#24282C" stroke-width="2.9281"/>
</svg>
